# xmcd
#
# Track frame offsets:
#   150
#   14517
#   26802
#   40060
#   50696
#   62093
#   75605
#   90506
#   104113
#   115054
#   125267
#   137172
#   148604
#   159405
#   170403
#   183317
#   195374
#   207802
#   219607
#   231335
#   244126
#   256029
#   269362
#   281263
#   293859
#
# Disc length: 4069 seconds
#
# Revision: 2
# Processed by: cddbd v1.5.1PL0 Copyright (c) Steve Scherf et al.
# Submitted via: Media_Universe 3.0
#
DISCID=6a0fe319
DTITLE=Various Artist - Western Swing 1932-1947 - Les Triomphes De La Country Music Vol.14
DYEAR=2002
DGENRE=Western Swing
TTITLE0=Fortworth Doughboys - Nancy Jane
TTITLE1=Milton Brown - Oh You Pretty Woman
TTITLE2=Milton Brown - Brownie's Stomp
TTITLE3=Bill Boyd and Cowboy Ramblers - Too Blue To Care
TTITLE4=Tune Wranglers - Buster's Crawdad Song
TTITLE5=Jimmie Reward and Oklahoma Playboys - Big Daddy Blues
TTITLE6=Jimmie Reward and Oklahoma Playboys - Lose Your Blues And Laugh At Life
TTITLE7=Modern Mountainers - Dirty Dog Blues
TTITLE8=Light Crust Doughboys - Blue Guitar
TTITLE9=Smokey Wood and The Wood Ships - Keep On Truckin'
TTITLE10=W.Lee O'daniel and His Hillbilly Boys - Lonesome Road Blues
TTITLE11=Adolph Hofner and His Texans - I'll Keep My Old Guitar
TTITLE12=Light Crust Doughboys - Pussy Pussy Pussy
TTITLE13=Hank Peeny and His Radio Cowboys - Mississippi Muddle
TTITLE14=Cliff Bruner and His Boys - Truck Driver's Blues
TTITLE15=Hi-Flyers - Whatcha Gonna Do
TTITLE16=Sons Of The West - Sally's Got A Wooden Leg
TTITLE17=Sunshine Boys - Gonna Get Tight
TTITLE18=Cliff Bruner and His Boys - Draftboard Blues
TTITLE19=Spade Cooley and His Orchestra - Shame On You
TTITLE20=Zeke Clements and His Western Swing Band - Oklahoma Blues
TTITLE21=Tex Williams and His Western Caravan - I Got Texas In My Soul
TTITLE22=Jimmie Widener - That's My Linda Lou
TTITLE23=Spade Cooley and His Orchestra - Oklahoma Stomp
TTITLE24=Johnny Lee Wills - Square Dance Boogie
EXTD=YEAR: 2002
EXTT0=
EXTT1=
EXTT2=
EXTT3=
EXTT4=
EXTT5=
EXTT6=
EXTT7=
EXTT8=
EXTT9=
EXTT10=
EXTT11=
EXTT12=
EXTT13=
EXTT14=
EXTT15=
EXTT16=
EXTT17=
EXTT18=
EXTT19=
EXTT20=
EXTT21=
EXTT22=
EXTT23=
EXTT24=
PLAYORDER=
